<svg xmlns="http://www.w3.org/2000/svg" xmlns:xlink="http://www.w3.org/1999/xlink" width="500" zoomAndPan="magnify" viewBox="0 0 375 374.999991" height="500" preserveAspectRatio="xMidYMid meet" version="1.2"><defs><clipPath id="99b7b7f260"><path d="M 0.28125 44 L 325.253906 44 L 325.253906 372.292969 L 0.28125 372.292969 Z M 0.28125 44 "/></clipPath><clipPath id="298e8e94e9"><path d="M 49.265625 44 L 374.730469 44 L 374.730469 372.292969 L 49.265625 372.292969 Z M 49.265625 44 "/></clipPath><clipPath id="eb22da7627"><path d="M 0.28125 5.59375 L 374.730469 5.59375 L 374.730469 245 L 0.28125 245 Z M 0.28125 5.59375 "/></clipPath></defs><g id="9086ff5b1f"><g clip-rule="nonzero" clip-path="url(#99b7b7f260)"><path style=" stroke:none;fill-rule:nonzero;fill:#545454;fill-opacity:1;" d="M 126.570312 174.796875 C 126.453125 174.796875 126.332031 174.796875 126.332031 174.796875 L 20.121094 173.242188 C 9.007812 173.121094 0.046875 163.921875 0.285156 152.8125 C 0.40625 141.820312 9.484375 132.980469 20.476562 132.980469 C 20.597656 132.980469 20.71875 132.980469 20.71875 132.980469 L 126.929688 134.535156 C 138.042969 134.652344 147.003906 143.851562 146.765625 154.964844 C 146.644531 165.953125 137.5625 174.796875 126.570312 174.796875 Z M 238.042969 372.292969 C 230.875 372.292969 223.945312 368.464844 220.242188 361.777344 L 169.582031 268.464844 C 164.328125 258.667969 167.910156 246.484375 177.707031 241.105469 C 187.503906 235.847656 199.6875 239.429688 205.066406 249.230469 L 255.726562 342.539062 C 260.980469 352.335938 257.398438 364.527344 247.601562 369.902344 C 244.613281 371.453125 241.269531 372.292969 238.042969 372.292969 Z M 248.078125 134.535156 L 285.355469 133.9375 L 322.152344 75.632812 C 328.007812 66.191406 325.261719 53.769531 315.824219 47.792969 C 306.382812 41.941406 293.957031 44.6875 287.984375 54.128906 L 233.5 140.625 C 233.265625 141.105469 233.027344 141.582031 232.789062 141.941406 C 236.371094 137.523438 241.867188 134.652344 248.078125 134.535156 "/></g><g clip-rule="nonzero" clip-path="url(#298e8e94e9)"><path style=" stroke:none;fill-rule:nonzero;fill:#38b6ff;fill-opacity:1;" d="M 248.4375 174.796875 C 237.445312 174.796875 228.484375 165.953125 228.246094 154.964844 C 228.125 143.851562 236.96875 134.652344 248.078125 134.535156 L 354.171875 132.980469 C 365.523438 132.859375 374.484375 141.703125 374.605469 152.8125 C 374.722656 163.921875 365.882812 173.121094 354.769531 173.242188 L 248.675781 174.796875 C 248.558594 174.796875 248.558594 174.796875 248.4375 174.796875 Z M 89.535156 133.9375 L 126.929688 134.535156 C 133.027344 134.652344 138.402344 137.402344 141.984375 141.703125 C 141.863281 141.34375 141.625 141.105469 141.503906 140.746094 L 87.027344 54.242188 C 81.054688 44.808594 68.625 41.941406 59.1875 47.914062 C 49.746094 53.890625 46.882812 66.3125 52.855469 75.75 Z M 169.582031 268.464844 C 166.832031 263.210938 166.480469 257.351562 168.269531 252.21875 C 168.148438 252.335938 168.027344 252.574219 168.027344 252.695312 L 119.285156 342.539062 C 114.027344 352.335938 117.609375 364.644531 127.40625 369.902344 C 130.394531 371.453125 133.738281 372.292969 136.964844 372.292969 C 144.132812 372.292969 151.0625 368.464844 154.769531 361.777344 L 187.503906 301.441406 L 169.582031 268.464844 "/></g><g clip-rule="nonzero" clip-path="url(#eb22da7627)"><path style=" stroke:none;fill-rule:nonzero;fill:#38b6ff;fill-opacity:1;" d="M 187.386719 139.191406 C 184.15625 139.191406 180.816406 138.359375 177.828125 136.804688 C 168.027344 131.546875 164.445312 119.242188 169.703125 109.445312 L 220.359375 16.132812 C 225.621094 6.335938 237.921875 2.753906 247.722656 8.007812 C 257.519531 13.265625 261.101562 25.570312 255.84375 35.371094 L 205.1875 128.679688 C 201.480469 135.371094 194.554688 139.191406 187.386719 139.191406 Z M 109.367188 212.195312 C 112.59375 207.171875 117.492188 204.070312 122.871094 203.113281 C 122.75 203.113281 122.628906 203.113281 122.628906 203.113281 C 122.628906 203.113281 122.511719 203.113281 122.390625 203.113281 L 20.121094 204.546875 C 9.007812 204.667969 0.167969 213.867188 0.285156 224.976562 C 0.523438 235.96875 9.484375 244.808594 20.476562 244.808594 C 20.476562 244.808594 20.597656 244.808594 20.71875 244.808594 L 89.417969 243.855469 Z M 354.890625 204.546875 L 252.617188 203.113281 C 252.617188 203.113281 252.5 203.113281 252.378906 203.113281 C 252.378906 203.113281 252.378906 203.113281 252.257812 203.113281 C 257.519531 204.070312 262.535156 207.292969 265.644531 212.195312 L 285.59375 243.855469 L 354.292969 244.808594 C 354.292969 244.808594 354.410156 244.808594 354.53125 244.808594 C 365.523438 244.808594 374.605469 235.96875 374.722656 224.976562 C 374.964844 213.867188 366.003906 204.667969 354.890625 204.546875 "/></g><path style=" stroke:none;fill-rule:nonzero;fill:#545454;fill-opacity:1;" d="M 69.820312 332.980469 C 66.117188 332.980469 62.414062 332.023438 59.066406 329.878906 C 49.628906 323.90625 46.882812 311.476562 52.734375 302.039062 L 109.367188 212.195312 C 115.34375 202.753906 127.765625 200.003906 137.207031 205.863281 C 146.644531 211.835938 149.394531 224.257812 143.535156 233.699219 L 86.90625 323.546875 C 83.082031 329.636719 76.511719 332.980469 69.820312 332.980469 Z M 305.1875 332.980469 C 298.5 332.980469 291.929688 329.636719 288.101562 323.546875 L 231.472656 233.699219 C 225.496094 224.257812 228.363281 211.835938 237.804688 205.863281 C 247.242188 199.886719 259.671875 202.753906 265.644531 212.195312 L 322.273438 302.039062 C 328.246094 311.476562 325.382812 323.90625 315.941406 329.878906 C 312.59375 332.023438 308.894531 332.980469 305.1875 332.980469 Z M 169.703125 109.445312 L 187.503906 76.707031 L 154.648438 16.132812 C 149.269531 6.335938 137.085938 2.753906 127.289062 8.007812 C 117.492188 13.382812 113.910156 25.570312 119.164062 35.371094 L 167.910156 125.214844 C 168.148438 125.691406 168.386719 126.171875 168.746094 126.527344 C 166.59375 121.148438 166.714844 114.9375 169.703125 109.445312 "/><g style="fill:#545454;fill-opacity:1;"><g transform="translate(148.261708, 209.624986)"><path style="stroke:none" d="M 3.0625 -6.1875 C 2.019531 -7.457031 1.5 -8.601562 1.5 -9.625 C 1.5 -10.644531 2.359375 -12 4.078125 -13.6875 C 5.078125 -14.644531 6.132812 -15.125 7.25 -15.125 C 8.375 -15.125 9.9375 -14.125 11.9375 -12.125 C 12.5 -11.4375 13.300781 -10.78125 14.34375 -10.15625 C 15.382812 -9.539062 16.34375 -9.234375 17.21875 -9.234375 C 20.9375 -9.234375 22.796875 -10.753906 22.796875 -13.796875 C 22.796875 -14.722656 22.285156 -15.492188 21.265625 -16.109375 C 20.242188 -16.734375 18.972656 -17.179688 17.453125 -17.453125 C 15.941406 -17.734375 14.304688 -18.179688 12.546875 -18.796875 C 10.785156 -19.421875 9.144531 -20.15625 7.625 -21 C 6.101562 -21.84375 4.832031 -23.171875 3.8125 -24.984375 C 2.789062 -26.804688 2.28125 -29 2.28125 -31.5625 C 2.28125 -35.082031 3.585938 -38.148438 6.203125 -40.765625 C 8.828125 -43.390625 12.398438 -44.703125 16.921875 -44.703125 C 19.316406 -44.703125 21.503906 -44.390625 23.484375 -43.765625 C 25.460938 -43.148438 26.832031 -42.519531 27.59375 -41.875 L 29.09375 -40.734375 C 30.332031 -39.578125 30.953125 -38.597656 30.953125 -37.796875 C 30.953125 -36.992188 30.472656 -35.894531 29.515625 -34.5 C 28.160156 -32.5 26.757812 -31.5 25.3125 -31.5 C 24.476562 -31.5 23.441406 -31.898438 22.203125 -32.703125 C 22.078125 -32.773438 21.84375 -32.972656 21.5 -33.296875 C 21.164062 -33.617188 20.859375 -33.878906 20.578125 -34.078125 C 19.734375 -34.597656 18.660156 -34.859375 17.359375 -34.859375 C 16.066406 -34.859375 14.988281 -34.546875 14.125 -33.921875 C 13.269531 -33.304688 12.84375 -32.445312 12.84375 -31.34375 C 12.84375 -30.25 13.351562 -29.359375 14.375 -28.671875 C 15.394531 -27.992188 16.660156 -27.535156 18.171875 -27.296875 C 19.691406 -27.054688 21.351562 -26.6875 23.15625 -26.1875 C 24.957031 -25.6875 26.617188 -25.078125 28.140625 -24.359375 C 29.660156 -23.640625 30.929688 -22.390625 31.953125 -20.609375 C 32.972656 -18.828125 33.484375 -16.632812 33.484375 -14.03125 C 33.484375 -11.4375 32.960938 -9.148438 31.921875 -7.171875 C 30.878906 -5.191406 29.519531 -3.660156 27.84375 -2.578125 C 24.601562 -0.460938 21.140625 0.59375 17.453125 0.59375 C 15.578125 0.59375 13.796875 0.363281 12.109375 -0.09375 C 10.429688 -0.550781 9.078125 -1.117188 8.046875 -1.796875 C 5.921875 -3.078125 4.4375 -4.316406 3.59375 -5.515625 Z M 3.0625 -6.1875 "/></g></g><g style="fill:#545454;fill-opacity:1;"><g transform="translate(180.835196, 209.624986)"><path style="stroke:none" d="M 27.78125 -40.859375 L 43.984375 -7.375 C 44.660156 -6.019531 45 -5 45 -4.3125 C 45 -2.875 43.835938 -1.578125 41.515625 -0.421875 C 40.160156 0.253906 39.09375 0.59375 38.3125 0.59375 C 37.53125 0.59375 36.890625 0.410156 36.390625 0.046875 C 35.890625 -0.304688 35.53125 -0.679688 35.3125 -1.078125 C 35.09375 -1.484375 34.78125 -2.082031 34.375 -2.875 L 31.265625 -9.359375 L 14.640625 -9.359375 L 11.515625 -2.875 C 11.117188 -2.082031 10.8125 -1.503906 10.59375 -1.140625 C 10.375 -0.773438 10.015625 -0.398438 9.515625 -0.015625 C 9.015625 0.359375 8.375 0.546875 7.59375 0.546875 C 6.8125 0.546875 5.738281 0.203125 4.375 -0.484375 C 2.0625 -1.597656 0.90625 -2.875 0.90625 -4.3125 C 0.90625 -5 1.242188 -6.019531 1.921875 -7.375 L 18.125 -40.921875 C 18.5625 -41.835938 19.226562 -42.578125 20.125 -43.140625 C 21.03125 -43.703125 21.984375 -43.984375 22.984375 -43.984375 C 25.140625 -43.984375 26.738281 -42.941406 27.78125 -40.859375 Z M 22.921875 -26.453125 L 18.953125 -18.234375 L 26.9375 -18.234375 Z M 22.921875 -26.453125 "/></g></g></g></svg>